<?xml version="1.0" encoding="utf-8"?>
<!-- Generator: Adobe Illustrator 17.0.0, SVG Export Plug-In . SVG Version: 6.00 Build 0)  -->
<!DOCTYPE svg PUBLIC "-//W3C//DTD SVG 1.1//EN" "http://www.w3.org/Graphics/SVG/1.1/DTD/svg11.dtd">
<svg version="1.1" id="Layer_1" xmlns="http://www.w3.org/2000/svg" xmlns:xlink="http://www.w3.org/1999/xlink" x="0px" y="0px"
	 width="283.465px" height="283.465px" viewBox="0 0 283.465 283.465" enable-background="new 0 0 283.465 283.465"
	 xml:space="preserve">
<path fill="#FFFFFF" d="M245.33,246.33h-23v-16h7v-7h16V246.33z M190.091,230.33h-32.239v16h32.239V230.33z M125.613,230.33H93.374
	v16h32.239V230.33z M61.135,230.33h-7v-7h-16v23h23V230.33z M54.135,158.852h-16v32.239h16V158.852z M54.135,94.375h-16v32.239h16
	V94.375z M54.135,55.135h7v-16h-23v23h16V55.135z M190.091,39.135h-32.239v16h32.239V39.135z M125.612,39.135H93.374v16h32.239
	V39.135z M245.33,39.135h-23v16h7v7h16V39.135z M245.33,158.852h-16v32.239h16V158.852z M245.33,94.374h-16v32.239h16V94.374z"/>
<g display="none">
	<rect x="46.135" y="47.135" display="inline" fill="#FFFFFF" width="191.195" height="191.195"/>
	<g display="inline">
		<polyline fill="none" stroke="#000000" stroke-width="16" stroke-miterlimit="10" points="237.33,223.33 237.33,238.33 
			222.33,238.33 		"/>
		
			<line fill="none" stroke="#000000" stroke-width="16" stroke-miterlimit="10" stroke-dasharray="32.239,32.239" x1="190.091" y1="238.33" x2="77.254" y2="238.33"/>
		<polyline fill="none" stroke="#000000" stroke-width="16" stroke-miterlimit="10" points="61.135,238.33 46.135,238.33 
			46.135,223.33 		"/>
		
			<line fill="none" stroke="#000000" stroke-width="16" stroke-miterlimit="10" stroke-dasharray="32.239,32.239" x1="46.135" y1="191.091" x2="46.135" y2="78.254"/>
		<polyline fill="none" stroke="#000000" stroke-width="16" stroke-miterlimit="10" points="46.135,62.135 46.135,47.135 
			61.135,47.135 		"/>
		
			<line fill="none" stroke="#000000" stroke-width="16" stroke-miterlimit="10" stroke-dasharray="32.239,32.239" x1="93.374" y1="47.135" x2="206.21" y2="47.135"/>
		<polyline fill="none" stroke="#000000" stroke-width="16" stroke-miterlimit="10" points="222.33,47.135 237.33,47.135 
			237.33,62.135 		"/>
		
			<line fill="none" stroke="#000000" stroke-width="16" stroke-miterlimit="10" stroke-dasharray="32.239,32.239" x1="237.33" y1="94.374" x2="237.33" y2="207.21"/>
	</g>
</g>
</svg>
