<?xml version="1.0" encoding="utf-8"?>
<!-- Generator: Adobe Illustrator 17.0.0, SVG Export Plug-In . SVG Version: 6.00 Build 0)  -->
<!DOCTYPE svg PUBLIC "-//W3C//DTD SVG 1.1//EN" "http://www.w3.org/Graphics/SVG/1.1/DTD/svg11.dtd">
<svg version="1.1" id="lassoSelect" xmlns="http://www.w3.org/2000/svg" xmlns:xlink="http://www.w3.org/1999/xlink" x="0px"
	 y="0px" width="283.465px" height="283.465px" viewBox="0 0 283.465 283.465" enable-background="new 0 0 283.465 283.465"
	 xml:space="preserve">
<path fill="#FFFFFF" d="M155.749,147.989c-13.894-21.564-13.894-21.564-13.894-21.564l-33.128,22.436c0,0,0,0,13.894,21.564
	c5.291,8.211,34.5,31.833,42.5,27C172.005,193.266,160.855,155.914,155.749,147.989z M165.378,245.592l-0.039-16h0.039
	c7.642,0,15.198-0.382,22.46-1.134l1.648,15.914C181.68,245.182,173.569,245.592,165.378,245.592z M141.187,244.365
	c-8.535-0.89-16.631-2.244-24.065-4.028l3.733-15.559c6.753,1.621,14.152,2.856,21.99,3.673L141.187,244.365z M213.556,240.357
	l-3.727-15.561c7.921-1.896,14.906-4.337,20.202-7.058l7.311,14.232C230.834,235.314,222.831,238.135,213.556,240.357z
	 M93.336,231.93c-15.669-8.075-18.958-17.42-18.958-23.838l0.001-0.229l15.999,0.154l-8-0.077l8,0.114
	c0,2.028,2.694,5.74,10.288,9.653L93.336,231.93z M240.378,208.168v-0.076c0-1.981-2.679-5.682-10.229-9.587l7.35-14.211
	c15.604,8.069,18.88,17.396,18.88,23.798L240.378,208.168z M100.786,198.415l-7.294-14.24c6.513-3.336,14.517-6.15,23.788-8.365
	l3.717,15.563C113.079,193.263,106.09,195.698,100.786,198.415z M209.971,191.422c-6.75-1.624-14.146-2.862-21.986-3.681
	l1.662-15.914c8.537,0.892,16.635,2.25,24.066,4.038L209.971,191.422z M133.138,115.719l-32.118,21.412L32.787,35.426l31.333-20.667
	L133.138,115.719z"/>
</svg>
