<?xml version="1.0" encoding="utf-8"?>
<!-- Generator: Adobe Illustrator 17.0.0, SVG Export Plug-In . SVG Version: 6.00 Build 0)  -->
<!DOCTYPE svg PUBLIC "-//W3C//DTD SVG 1.1//EN" "http://www.w3.org/Graphics/SVG/1.1/DTD/svg11.dtd">
<svg version="1.1" id="lassoSelect" xmlns="http://www.w3.org/2000/svg" xmlns:xlink="http://www.w3.org/1999/xlink" x="0px"
	 y="0px" width="283.465px" height="283.465px" viewBox="0 0 283.465 283.465" enable-background="new 0 0 283.465 283.465"
	 xml:space="preserve">
<g>
	<path fill="#FFFFFF" d="M114.571,254.974l-0.092-16c10.401-0.06,20.879-1.486,31.144-4.241l4.146,15.453
		C138.184,253.295,126.342,254.906,114.571,254.974z M78.994,249.853c-13.165-4.206-24.182-10.965-31.859-19.543l-0.158-0.182
		l4.852-4.086l7.117-6.527l0.11,0.126l0.001-0.001c5.777,6.455,14.355,11.633,24.806,14.973L78.994,249.853z M182.653,236.564
		l-8.064-13.818c9.063-5.289,17.069-11.699,23.797-19.053l0.351-0.385l11.85,10.75l-0.413,0.453
		C202.373,223.037,193.109,230.462,182.653,236.564z M31.368,196.389c-1.617-7.707-2.438-15.951-2.438-24.501
		c0-3.678,0.154-7.445,0.46-11.197l15.947,1.301c-0.271,3.319-0.408,6.649-0.407,9.896c0,7.449,0.706,14.587,2.097,21.217
		L31.368,196.389z M231.41,185.774l-13.758-8.168c5.474-9.221,10.056-18.957,13.619-28.938l15.068,5.381
		C242.432,164.996,237.408,175.669,231.41,185.774z M51.678,131.041l-15.19-5.024c3.709-11.215,8.722-21.998,14.896-32.048
		l13.633,8.376C59.488,111.343,55,120.998,51.678,131.041z M254.606,119.758l-15.881-1.942c0.57-4.667,0.86-9.27,0.861-13.681
		c0-6.071-0.548-11.85-1.628-17.174l15.68-3.182c1.293,6.369,1.948,13.218,1.948,20.357
		C255.585,109.195,255.255,114.451,254.606,119.758z M84.561,77.541l-11.258-11.37c8.286-8.204,17.855-15.399,28.444-21.388
		l7.877,13.927C100.27,64,91.838,70.335,84.561,77.541z M225.449,61.096l-0.422-0.44c-6.288-6.488-14.572-11.407-24.618-14.619
		l4.871-15.24c12.584,4.022,23.095,10.323,31.239,18.727l0.555,0.58L225.449,61.096z M138.778,46.621l-4.316-15.407
		c11.691-3.275,23.503-5.052,35.107-5.281l0.316,15.997C159.633,42.132,149.167,43.71,138.778,46.621z"/>
</g>
</svg>
