<?xml version="1.0" encoding="utf-8"?>
<!-- Generator: Adobe Illustrator 17.0.0, SVG Export Plug-In . SVG Version: 6.00 Build 0)  -->
<!DOCTYPE svg PUBLIC "-//W3C//DTD SVG 1.1//EN" "http://www.w3.org/Graphics/SVG/1.1/DTD/svg11.dtd">
<svg version="1.1" id="Layer_2" xmlns="http://www.w3.org/2000/svg" xmlns:xlink="http://www.w3.org/1999/xlink" x="0px" y="0px"
	 width="283.465px" height="283.465px" viewBox="0 0 283.465 283.465" enable-background="new 0 0 283.465 283.465"
	 xml:space="preserve">
<path fill="#FFFFFF" d="M144.52,227.814c-65.888,0-117.5-24.829-117.5-56.525s51.612-56.525,117.5-56.525
	c65.888,0,117.5,24.829,117.5,56.525S210.407,227.814,144.52,227.814z M144.52,126.763c-63.108,0-105.5,23.022-105.5,44.525
	s42.393,44.525,105.5,44.525c63.107,0,105.5-23.022,105.5-44.525S207.627,126.763,144.52,126.763z M144.52,168.702
	c-65.888,0-117.5-24.829-117.5-56.526c0-31.696,51.612-56.525,117.5-56.525c65.888,0,117.5,24.829,117.5,56.525
	C262.02,143.873,210.407,168.702,144.52,168.702z M144.52,67.65c-63.108,0-105.5,23.022-105.5,44.525s42.393,44.526,105.5,44.526
	c63.107,0,105.5-23.023,105.5-44.526S207.627,67.65,144.52,67.65z"/>
</svg>
