<?xml version="1.0" encoding="utf-8"?>
<!-- Generator: Adobe Illustrator 17.0.0, SVG Export Plug-In . SVG Version: 6.00 Build 0)  -->
<!DOCTYPE svg PUBLIC "-//W3C//DTD SVG 1.1//EN" "http://www.w3.org/Graphics/SVG/1.1/DTD/svg11.dtd">
<svg version="1.1" id="lassoSelect" xmlns="http://www.w3.org/2000/svg" xmlns:xlink="http://www.w3.org/1999/xlink" x="0px"
	 y="0px" width="283.465px" height="283.465px" viewBox="0 0 283.465 283.465" enable-background="new 0 0 283.465 283.465"
	 xml:space="preserve">
<polygon fill="#FFFFFF" points="252.233,199.482 236.233,199.482 236.233,149.733 199.899,149.733 199.899,169.482 183.899,169.482 
	183.899,149.733 146.178,149.733 146.178,178.483 130.177,178.483 130.177,149.733 95.233,149.733 95.233,169.482 79.233,169.482 
	79.233,149.733 47.232,149.733 47.232,199.482 31.232,199.482 31.232,88.483 47.232,88.483 47.232,133.732 79.233,133.732 
	79.233,116.482 95.233,116.482 95.233,133.732 130.177,133.732 130.177,106.482 146.178,106.482 146.178,133.732 183.899,133.732 
	183.899,116.482 199.899,116.482 199.899,133.732 236.233,133.732 236.233,83.983 252.233,83.983 "/>
</svg>
